HIERARCHY
ROOT Hips
{
    OFFSET 0.000000 0.000000 0.000000
    CHANNELS 6 Xposition Yposition Zposition Zrotation Xrotation Yrotation
    JOINT Spine
    {
        OFFSET -0.000000 0.083210 0.000000
        CHANNELS 3 Zrotation Xrotation Yrotation
        JOINT Spine1
        {
            OFFSET -0.000000 0.256334 0.000000
            CHANNELS 3 Zrotation Xrotation Yrotation
            JOINT Neck
            {
                OFFSET -0.000000 0.275576 0.002912
                CHANNELS 3 Zrotation Xrotation Yrotation
                JOINT Head
                {
                    OFFSET -0.000000 0.157287 0.020295
                    CHANNELS 3 Zrotation Xrotation Yrotation
                    End Site
                    {
                        OFFSET -0.000000 0.202951 0.000000
                    }
                }
            }
            JOINT LeftShoulder
            {
                OFFSET 0.041044 0.235234 -0.000041
                CHANNELS 3 Zrotation Xrotation Yrotation
                JOINT LeftArm
                {
                    OFFSET 0.117964 0.000000 0.000000
                    CHANNELS 3 Zrotation Xrotation Yrotation
                    JOINT LeftForeArm
                    {
                        OFFSET 0.291248 0.000000 0.000000
                        CHANNELS 3 Zrotation Xrotation Yrotation
                        JOINT LeftHand
                        {
                            OFFSET 0.245673 0.000000 0.000000
                            CHANNELS 3 Zrotation Xrotation Yrotation
                            End Site
                            {
                                OFFSET 0.152213 0.000000 0.000000
                            }
                        }
                    }
                }
            }
            JOINT RightShoulder
            {
                OFFSET -0.040052 0.235234 -0.000041
                CHANNELS 3 Zrotation Xrotation Yrotation
                JOINT RightArm
                {
                    OFFSET -0.117964 0.000000 0.000000
                    CHANNELS 3 Zrotation Xrotation Yrotation
                    JOINT RightForeArm
                    {
                        OFFSET -0.291248 0.000000 0.000000
                        CHANNELS 3 Zrotation Xrotation Yrotation
                        JOINT RightHand
                        {
                            OFFSET -0.245673 0.000000 0.000000
                            CHANNELS 3 Zrotation Xrotation Yrotation
                            End Site
                            {
                                OFFSET -0.152213 0.000000 0.000000
                            }
                        }
                    }
                }
            }
        }
    }
    JOINT LeftUpLeg
    {
        OFFSET 0.101475 0.000000 0.000000
        CHANNELS 3 Zrotation Xrotation Yrotation
        JOINT LeftLeg
        {
            OFFSET -0.000000 -0.446535 0.000000
            CHANNELS 3 Zrotation Xrotation Yrotation
            JOINT LeftFoot
            {
                OFFSET -0.000000 -0.400037 0.000000
                CHANNELS 3 Zrotation Xrotation Yrotation
                JOINT LeftToeBase
                {
                    OFFSET -0.000000 -0.065959 0.152213
                    CHANNELS 3 Zrotation Xrotation Yrotation
                    End Site
                    {
                        OFFSET -0.000000 0.000000 0.040590
                    }
                }
            }
        }
    }
    JOINT RightUpLeg
    {
        OFFSET -0.101475 0.000000 0.000000
        CHANNELS 3 Zrotation Xrotation Yrotation
        JOINT RightLeg
        {
            OFFSET -0.000000 -0.446535 0.000000
            CHANNELS 3 Zrotation Xrotation Yrotation
            JOINT RightFoot
            {
                OFFSET -0.000000 -0.400037 0.000000
                CHANNELS 3 Zrotation Xrotation Yrotation
                JOINT RightToeBase
                {
                    OFFSET -0.000000 -0.065959 0.152213
                    CHANNELS 3 Zrotation Xrotation Yrotation
                    End Site
                    {
                        OFFSET -0.000000 0.000000 0.040590
                    }
                }
            }
        }
    }
}
MOTION
Frames:    4
Frame Time:    0.008333
0.698951    0.933612    0.178425    3.997353    5.096662    -167.356339    -7.818901    0.962850    -24.303974    -4.321769    0.599156    -8.093785    -12.829754    11.452264    37.916878    -14.859930    7.102643    38.586491    8.645209    -14.200178    -36.234592    -7.942039    17.679893    -91.475761    22.708805    -10.854399    -38.757046    -8.018007    -2.371466    -6.291132    -0.957067    -3.170094    14.800175    47.514019    18.664516    34.103935    -115.246574    -41.901958    -9.710467    -0.815524    -52.275219    -19.489428    9.718958    18.971899    22.066755    -8.957819    25.497915    34.637287    -24.846861    -1.638154    11.280231    0.796633    -19.949068    8.700333    9.646291    -16.911686    32.502785    0.038925    23.912331    31.366385    16.432642    -10.180388    -0.219231    0.300639    -2.137812    6.785863    
0.698475    0.933868    0.176553    3.983734    5.018356    -167.838882    -7.845907    0.913612    -24.551683    -4.183109    0.455084    -8.181442    -12.863202    11.287890    38.025307    -14.978603    7.150238    38.732521    8.841594    -14.640161    -36.232506    -7.961307    16.782806    -91.746109    23.405584    -10.096249    -39.190788    -6.851296    -1.234568    -7.499918    -1.019727    -3.153333    14.470657    47.576809    17.359087    33.906559    -116.177307    -42.607929    -8.518071    -2.818339    -51.604145    -20.416161    9.559987    19.131844    22.146551    -8.928349    25.427057    34.647179    -24.970901    -1.047896    11.322189    0.864736    -20.534363    8.916776    9.728995    -16.879429    32.632236    0.056891    23.946417    31.563826    16.175383    -10.032528    -0.287123    0.286443    -1.833250    6.877809    
0.698032    0.934118    0.174672    3.969339    4.939111    -168.327911    -7.877303    0.855090    -24.774584    -4.032279    0.314049    -8.260215    -12.886971    11.175635    38.109039    -15.120687    7.170467    38.850624    8.971782    -15.089160    -36.254509    -7.954773    15.944493    -91.962433    24.203060    -9.390744    -39.655109    -6.296036    -0.085186    -8.567717    -1.136502    -3.318491    14.138035    47.649498    16.518389    33.679424    -117.301949    -42.725594    -7.678977    -4.164057    -50.857323    -20.839930    9.391618    19.302879    22.249128    -8.886784    25.329853    34.563332    -25.024151    -0.469506    11.426924    0.896569    -20.898760    8.934165    9.823048    -16.853653    32.745975    0.052497    24.003563    31.824965    15.951003    -9.923806    -0.395678    0.274371    -1.587045    6.946125    
0.697564    0.934357    0.172852    3.957377    4.864139    -168.821442    -7.898275    0.803255    -24.975603    -3.880481    0.178389    -8.331216    -12.880713    11.059704    38.184093    -15.246286    7.222947    38.968735    9.087831    -15.559895    -36.282490    -8.035477    15.129792    -92.098419    24.857044    -8.820772    -40.370979    -5.471097    0.895617    -9.339954    -1.231317    -3.428895    13.814031    47.464069    15.949437    33.656322    -118.923409    -42.368759    -7.523448    -5.093681    -50.530643    -21.033415    9.227231    19.470211    22.305296    -8.875285    25.245190    34.619499    -25.086851    0.139480    11.391046    0.966839    -21.347530    9.249336    9.910362    -16.829790    32.907692    0.078338    24.058784    32.063354    15.751165    -9.835332    -0.515097    0.262428    -1.357193    6.999100    
